<svg width="152" height="116" viewBox="0 0 152 116" fill="none" xmlns="http://www.w3.org/2000/svg">
<g clip-path="url(#clip0_105_15009)">
<mask id="mask0_105_15009" style="mask-type:luminance" maskUnits="userSpaceOnUse" x="5" y="7" width="144" height="94">
<path d="M148.183 51.4572L22.7134 7.0261L5.35131 56.0551L130.821 100.486L148.183 51.4572Z" fill="white"/>
</mask>
<g mask="url(#mask0_105_15009)">
<path d="M24.9677 7.82248L25.0776 8.74822C25.7463 20.1336 27.6946 29.1374 30.9233 35.7596C35.0527 44.3025 40.741 51.3809 47.9876 56.9941C60.198 66.549 72.0063 68.6444 83.4132 63.2799C89.1976 59.9216 92.8324 55.0559 94.3171 48.6822C95.0998 42.4956 93.1672 38.3199 88.519 36.1556C85.984 35.0563 83.4007 35.5957 80.7687 37.7733C77.5215 40.8161 75.4877 44.1375 74.6666 47.7382C73.8372 54.3683 76.602 61.8772 82.9612 70.2646C87.6626 76.4914 93.2748 81.2222 99.7978 84.4568C103.204 86.1399 107.186 87.5189 111.745 88.5941L117.901 89.7763L128.959 91.2577L131.3 91.7001C132.118 91.9223 132.65 92.7209 132.896 94.0964C132.741 95.4215 132.363 96.1072 131.761 96.1525C129.402 96.3284 126.444 96.2189 122.888 95.8236C115.957 94.9223 108.805 92.9559 101.432 89.9241C92.7804 86.6906 84.9886 80.2941 78.0564 70.7347C71.3902 60.8883 69.0384 52.3217 71.0009 45.0349C73.089 39.9556 75.8545 36.2054 79.298 33.7841C82.7312 31.4356 86.3368 30.9831 90.1139 32.4265C96.3116 35.542 99.134 40.7585 98.5817 48.0758C97.2408 55.8526 93.1618 61.9651 86.3451 66.4127C79.868 69.7988 73.2236 70.9858 66.4109 69.9735C58.4456 68.5545 51.0711 65.067 44.287 59.5114C34.5243 51.0616 27.9044 41.7287 24.4275 31.5119C22.0837 24.6549 20.8009 19.1324 20.5798 14.9445C20.4499 14.0545 20.6599 12.8446 21.21 11.3152C21.4861 10.846 21.8063 10.5098 22.1702 10.3061L24.6252 9.09167C24.8419 8.82621 24.9562 8.40319 24.9677 7.82248Z" fill="black"/>
</g>
<mask id="mask1_105_15009" style="mask-type:luminance" maskUnits="userSpaceOnUse" x="105" y="79" width="32" height="30">
<path d="M136.335 87.7059L112.804 79.3731L105.299 100.567L128.83 108.9L136.335 87.7059Z" fill="white"/>
</mask>
<g mask="url(#mask1_105_15009)">
<path d="M131.015 96.8726C131.087 96.8764 131.154 96.8754 131.217 96.8698C131.15 96.8746 131.082 96.8754 131.015 96.8724L131.015 96.8726ZM130.224 94.6759C130.23 94.4828 130.268 94.2919 130.336 94.1116L130.335 94.1112C130.255 94.314 130.217 94.5024 130.223 94.6756L130.224 94.6759ZM107.663 101.4C107.148 101.221 106.728 100.799 106.574 100.234C106.325 99.3214 106.862 98.3801 107.774 98.1306C108.619 97.9 109.514 97.6988 110.458 97.5271C110.482 97.5228 110.505 97.5192 110.529 97.5157C116.442 96.6975 119.691 96.2059 120.277 96.0406L120.277 96.0404C120.31 96.0298 120.344 96.0201 120.378 96.0117C124.165 95.0586 126.923 94.3734 128.654 93.9567L128.653 93.9565C126.342 92.4511 121.094 88.8101 112.909 83.0334C112.137 82.488 111.953 81.4197 112.498 80.6471C112.949 80.008 113.757 79.7712 114.459 80.0162C114.607 80.0677 114.749 80.1402 114.883 80.2348C124.856 87.2727 130.368 91.0775 131.42 91.6487C131.479 91.6807 131.536 91.7159 131.59 91.7546C132.309 92.2615 132.826 92.7241 133.144 93.1428C133.627 93.7811 133.789 94.4176 133.628 95.0524L133.627 95.0521C133.531 95.696 133.114 96.1871 132.375 96.5251C132.154 96.6261 131.878 96.722 131.548 96.813C131.457 96.8381 131.363 96.8557 131.269 96.8651L131.268 96.8649C130.672 96.9735 127.339 97.7913 121.269 99.3185L121.269 99.3183C121.248 99.3246 121.227 99.331 121.205 99.3368L121.205 99.3371C120.47 99.5441 117.082 100.066 111.042 100.902L111.042 100.902C110.205 101.054 109.417 101.232 108.675 101.435C108.329 101.529 107.978 101.51 107.663 101.4Z" fill="black"/>
</g>
</g>
<defs>
<clipPath id="clip0_105_15009">
<rect width="134.129" height="75.4976" fill="white" transform="matrix(-0.942642 -0.333807 -0.333807 0.942642 151.637 44.7731)"/>
</clipPath>
</defs>
</svg>
