<svg width="169" height="192" viewBox="0 0 169 192" fill="none" xmlns="http://www.w3.org/2000/svg">
<g clip-path="url(#clip0_105_15023)">
<mask id="mask0_105_15023" style="mask-type:luminance" maskUnits="userSpaceOnUse" x="17" y="10" width="144" height="176">
<path d="M72.5503 185.447L160.281 44.8488L105.341 10.5667L17.6096 151.165L72.5503 185.447Z" fill="white"/>
</mask>
<g mask="url(#mask0_105_15023)">
<path d="M158.707 47.3755L157.552 47.2603C143.531 45.014 132.061 44.9632 123.143 47.1089C111.648 49.8336 101.514 54.847 92.7423 62.1486C77.8452 74.4257 72.1247 88.2184 75.5813 103.528C78.1097 111.462 83.0484 117.189 90.3982 120.706C97.7091 123.32 103.305 122.093 107.185 117.023C109.203 114.237 109.241 110.951 107.301 107.166C104.474 102.401 100.983 99.036 96.8262 97.0702C88.9886 94.2804 79.1168 95.6239 67.2112 101.101C58.3778 105.144 51.1183 110.695 45.4332 117.756C42.4718 121.445 39.7251 125.916 37.1931 131.169L34.1016 138.335L29.3292 151.381L28.1624 154.108C27.6723 155.043 26.5584 155.476 24.8203 155.405C23.2509 154.86 22.519 154.216 22.6255 153.472C23.0456 150.557 23.9735 146.991 25.4097 142.774C28.3677 134.59 32.6801 126.423 38.3474 118.274C44.6032 108.625 54.4733 100.871 67.9577 95.0119C81.7196 89.5534 92.7661 88.9963 101.098 93.3401C106.712 97.2436 110.528 101.613 112.546 106.45C114.479 111.255 114.06 115.76 111.29 119.964C105.837 126.662 98.7369 128.692 89.9895 126.054C80.8952 122.334 74.5603 115.733 70.9848 106.25C68.6087 97.4659 68.951 89.0692 72.0124 81.0587C75.8779 71.7564 82.0992 63.7281 90.6764 56.9733C103.572 47.375 116.698 41.8348 130.053 40.3532C139.019 39.3463 146.077 39.2707 151.228 40.1272C152.345 40.2085 153.759 40.7888 155.471 41.8686C155.967 42.3304 156.29 42.81 156.44 43.3071L157.257 46.618C157.521 46.9528 158.005 47.2055 158.707 47.3755Z" fill="black"/>
</g>
<mask id="mask1_105_15023" style="mask-type:luminance" maskUnits="userSpaceOnUse" x="7" y="120" width="42" height="42">
<path d="M31.6654 161.302L48.1188 134.934L24.3697 120.115L7.91631 146.483L31.6654 161.302Z" fill="white"/>
</mask>
<g mask="url(#mask1_105_15023)">
<path d="M21.9504 152.372C21.9266 152.458 21.9097 152.54 21.8997 152.618C21.9118 152.535 21.9292 152.453 21.9508 152.372L21.9504 152.372ZM24.8335 152.001C25.0669 152.059 25.2888 152.157 25.4895 152.289L25.4902 152.288C25.2653 152.135 25.0464 152.039 24.8343 152L24.8335 152.001ZM22.7208 122.765C23.0774 122.188 23.7028 121.79 24.4318 121.755C25.6079 121.697 26.6079 122.604 26.6661 123.779C26.7194 124.869 26.7236 126.01 26.6787 127.204C26.6775 127.234 26.6755 127.264 26.6733 127.294C26.0793 134.702 25.8039 138.784 25.8474 139.541L25.8477 139.541C25.8518 139.584 25.8543 139.627 25.8555 139.671C25.9965 144.532 26.0883 148.069 26.1299 150.285L26.1304 150.284C28.5816 147.879 34.4182 142.477 43.6406 134.079C44.5111 133.286 45.8593 133.35 46.6522 134.22C47.3079 134.94 47.3787 135.986 46.8919 136.774C46.7898 136.94 46.6633 137.094 46.5123 137.231C35.2765 147.463 29.1698 153.142 28.1925 154.268C28.1379 154.331 28.0797 154.391 28.0181 154.447C27.2087 155.184 26.5072 155.689 25.913 155.962C25.007 156.379 24.1898 156.404 23.4612 156.038L23.4619 156.037C22.7047 155.747 22.2199 155.108 22.0075 154.118C21.9442 153.822 21.9017 153.462 21.8796 153.036C21.8737 152.918 21.8775 152.8 21.8914 152.683L21.8919 152.682C21.92 151.928 21.8215 147.656 21.5957 139.866L21.5962 139.866C21.594 139.839 21.5919 139.812 21.5907 139.784L21.5903 139.783C21.5362 138.834 21.8121 134.575 22.4187 127.008L22.4192 127.007C22.4582 125.949 22.4541 124.943 22.4071 123.987C22.3855 123.541 22.5026 123.119 22.7208 122.765Z" fill="black"/>
</g>
</g>
<defs>
<clipPath id="clip0_105_15023">
<rect width="167" height="94" fill="white" transform="matrix(0.529379 -0.848385 -0.848385 -0.529379 79.7483 191.442)"/>
</clipPath>
</defs>
</svg>
