<svg width="95" height="72" viewBox="0 0 95 72" fill="none" xmlns="http://www.w3.org/2000/svg">
<g clip-path="url(#clip0_105_14973)">
<mask id="mask0_105_14973" style="mask-type:luminance" maskUnits="userSpaceOnUse" x="1" y="4" width="92" height="58">
<path d="M1.93036 28.5101L83.0134 4.67072L92.1284 37.2637L11.0453 61.103L1.93036 28.5101Z" fill="white"/>
</mask>
<g mask="url(#mask0_105_14973)">
<path d="M81.5567 5.09783L81.4518 5.69557C80.5943 13.0746 79.018 18.8528 76.7225 23.0301C73.7838 28.4205 69.9146 32.7954 65.1153 36.1543C57.025 41.8769 49.4736 42.7635 42.4608 38.8138C38.9289 36.3959 36.8147 33.0842 36.1185 28.8783C35.8593 24.8225 37.2414 22.1843 40.265 20.9639C41.9109 20.3511 43.5249 20.8062 45.1072 22.3289C47.0456 24.4392 48.2058 26.6818 48.588 29.0571C48.8598 33.4033 46.8239 38.1762 42.4803 43.3755C39.268 47.2362 35.5365 50.0871 31.2859 51.9279C29.0666 52.8854 26.4942 53.6217 23.5687 54.1371L19.6286 54.6578L12.5753 55.1752L11.0772 55.3685C10.5509 55.4801 10.1838 55.9781 9.97601 56.8629C10.0236 57.7312 10.2368 58.1924 10.6157 58.2462C12.1015 58.4558 13.9771 58.5038 16.2423 58.3902C20.662 58.0836 25.2622 57.093 30.0434 55.4184C35.6407 53.6641 40.8148 49.8177 45.5658 43.8791C50.1593 37.7432 51.9741 32.2657 51.0105 27.4466C49.883 24.0583 48.2763 21.5073 46.1899 19.7933C44.1072 18.1272 41.8431 17.6874 39.3981 18.4739C35.3578 20.2504 33.373 23.5298 33.4433 28.3118C33.995 33.4246 36.3427 37.5652 40.4862 40.7334C44.4552 43.1973 48.614 44.2375 52.9632 43.8538C58.0572 43.2522 62.8563 41.2812 67.3608 37.941C73.8603 32.8385 78.405 27.0347 80.9947 20.5291C82.7392 16.1634 83.7616 12.6228 84.0613 9.90758C84.1774 9.33393 84.0907 8.53844 83.801 7.5214C83.6442 7.20505 83.4544 6.97343 83.2319 6.82625L81.725 5.93723C81.5979 5.75581 81.5418 5.47603 81.5567 5.09783Z" fill="black"/>
</g>
<mask id="mask1_105_14973" style="mask-type:luminance" maskUnits="userSpaceOnUse" x="8" y="48" width="20" height="19">
<path d="M8.04413 52.5672L23.2508 48.0963L27.1908 62.1852L11.9842 66.6561L8.04413 52.5672Z" fill="white"/>
</mask>
<g mask="url(#mask1_105_14973)">
<path d="M11.06 58.7446C11.0146 58.7442 10.9721 58.7408 10.9327 58.7346C10.9749 58.7405 11.0178 58.7437 11.0605 58.7445L11.06 58.7446ZM11.6444 57.3476C11.6483 57.2218 11.6316 57.0961 11.5949 56.976L11.5956 56.9758C11.6389 57.111 11.6554 57.235 11.6451 57.3474L11.6444 57.3476ZM25.6631 62.6321C25.9956 62.5361 26.2777 62.2788 26.3967 61.9171C26.5891 61.3337 26.2849 60.6997 25.7173 60.5006C25.1914 60.3165 24.633 60.1495 24.0423 59.9997C24.0274 59.996 24.0125 59.9927 23.9975 59.9895C20.2877 59.2187 18.2506 58.7678 17.8863 58.6366L17.8865 58.6366C17.8659 58.6283 17.8448 58.6207 17.8237 58.6138C15.4637 57.841 13.7444 57.284 12.6656 56.9432L12.6661 56.943C14.1857 56.057 17.6452 53.9004 23.0444 50.4729C23.5539 50.1493 23.7111 49.4619 23.3958 48.9373C23.1348 48.5034 22.6326 48.3168 22.1785 48.4478C22.0833 48.4753 21.9903 48.5167 21.9019 48.5728C15.3238 52.7486 11.691 55.0011 11.0032 55.3302C10.965 55.3486 10.9276 55.3693 10.8915 55.3922C10.4177 55.693 10.0724 55.973 9.8557 56.2325C9.52523 56.6282 9.39885 57.0357 9.47633 57.4552L9.477 57.455C9.51295 57.8778 9.75834 58.214 10.2132 58.4637C10.3492 58.5383 10.5199 58.6118 10.7251 58.6843C10.782 58.7044 10.8405 58.7195 10.8999 58.7295L10.9003 58.7293C11.2734 58.8241 13.3512 59.4905 17.1334 60.7288L17.1338 60.7287C17.1465 60.7336 17.1596 60.7386 17.1732 60.7433L17.1732 60.7435C17.6305 60.9078 19.7541 61.384 23.5439 62.1715L23.5443 62.1713C24.0675 62.3044 24.5597 62.4518 25.021 62.6134C25.2367 62.6888 25.4593 62.6908 25.6631 62.6321Z" fill="black"/>
</g>
</g>
<defs>
<clipPath id="clip0_105_14973">
<rect width="85.1656" height="49.1249" fill="white" transform="matrix(0.959393 -0.282072 0.269325 0.963049 0 24.0228)"/>
</clipPath>
</defs>
</svg>
