<svg width="99" height="34" viewBox="0 0 99 34" fill="none" xmlns="http://www.w3.org/2000/svg">
<path d="M0 12C0 5.37258 5.37258 0 12 0H87C93.6274 0 99 5.37258 99 12V34H0V12Z" fill="#096DD9"/>
<path d="M29.3066 17.6621H25.6738L25.6543 15.7676H28.7695C29.3034 15.7676 29.7493 15.6927 30.1074 15.543C30.4655 15.3932 30.7357 15.1751 30.918 14.8887C31.1068 14.6022 31.2012 14.2539 31.2012 13.8438C31.2012 13.388 31.1133 13.0169 30.9375 12.7305C30.7682 12.444 30.5013 12.2357 30.1367 12.1055C29.7721 11.9688 29.3099 11.9004 28.75 11.9004H26.543V24H23.8574V9.78125H28.75C29.5573 9.78125 30.2767 9.85938 30.9082 10.0156C31.5462 10.1654 32.0866 10.3997 32.5293 10.7188C32.972 11.0378 33.3073 11.4382 33.5352 11.9199C33.7695 12.4017 33.8867 12.9746 33.8867 13.6387C33.8867 14.2246 33.75 14.765 33.4766 15.2598C33.2096 15.748 32.7962 16.1452 32.2363 16.4512C31.6829 16.7572 30.9798 16.9329 30.127 16.9785L29.3066 17.6621ZM29.1895 24H24.8828L26.0059 21.8906H29.1895C29.7233 21.8906 30.1628 21.8027 30.5078 21.627C30.8594 21.4512 31.1198 21.2103 31.2891 20.9043C31.4648 20.5918 31.5527 20.2337 31.5527 19.8301C31.5527 19.3874 31.4746 19.0033 31.3184 18.6777C31.1686 18.3522 30.9277 18.1016 30.5957 17.9258C30.2702 17.75 29.8405 17.6621 29.3066 17.6621H26.5137L26.5332 15.7676H30.0879L30.7031 16.5C31.5234 16.5065 32.1908 16.6693 32.7051 16.9883C33.2259 17.3073 33.61 17.7174 33.8574 18.2188C34.1048 18.7201 34.2285 19.2604 34.2285 19.8398C34.2285 20.7513 34.0299 21.5163 33.6328 22.1348C33.2422 22.7533 32.6693 23.2188 31.9141 23.5312C31.1654 23.8438 30.2572 24 29.1895 24ZM45.8496 21.9688V24H36.2207V22.2617L40.8398 17.2715C41.3216 16.7246 41.7025 16.2493 41.9824 15.8457C42.2624 15.4421 42.4609 15.0775 42.5781 14.752C42.7018 14.4199 42.7637 14.1042 42.7637 13.8047C42.7637 13.3685 42.6855 12.9876 42.5293 12.6621C42.373 12.3301 42.1452 12.0729 41.8457 11.8906C41.5527 11.7083 41.1914 11.6172 40.7617 11.6172C40.2865 11.6172 39.8796 11.7279 39.541 11.9492C39.209 12.1641 38.9551 12.4635 38.7793 12.8477C38.61 13.2318 38.5254 13.6712 38.5254 14.166H35.9375C35.9375 13.3262 36.1328 12.5612 36.5234 11.8711C36.9141 11.1745 37.474 10.6178 38.2031 10.2012C38.9323 9.78451 39.7982 9.57617 40.8008 9.57617C41.7773 9.57617 42.6042 9.73893 43.2812 10.0645C43.9583 10.3835 44.4727 10.8392 44.8242 11.4316C45.1758 12.0241 45.3516 12.7305 45.3516 13.5508C45.3516 14.0065 45.2767 14.4557 45.127 14.8984C44.9772 15.3411 44.7656 15.7806 44.4922 16.2168C44.2253 16.6465 43.9062 17.0827 43.5352 17.5254C43.1641 17.9681 42.7507 18.4206 42.2949 18.8828L39.5215 21.9688H45.8496ZM47.8418 22.7402C47.8418 22.3496 47.9753 22.0208 48.2422 21.7539C48.5091 21.487 48.8704 21.3535 49.3262 21.3535C49.7819 21.3535 50.1432 21.487 50.4102 21.7539C50.6771 22.0208 50.8105 22.3496 50.8105 22.7402C50.8105 23.1243 50.6771 23.4499 50.4102 23.7168C50.1432 23.9772 49.7819 24.1074 49.3262 24.1074C48.8704 24.1074 48.5091 23.9772 48.2422 23.7168C47.9753 23.4499 47.8418 23.1243 47.8418 22.7402ZM47.8516 14.5469C47.8516 14.1562 47.985 13.8275 48.252 13.5605C48.5189 13.2936 48.8802 13.1602 49.3359 13.1602C49.7917 13.1602 50.153 13.2936 50.4199 13.5605C50.6868 13.8275 50.8203 14.1562 50.8203 14.5469C50.8203 14.931 50.6868 15.2565 50.4199 15.5234C50.153 15.7839 49.7917 15.9141 49.3359 15.9141C48.8802 15.9141 48.5189 15.7839 48.252 15.5234C47.985 15.2565 47.8516 14.931 47.8516 14.5469ZM58.877 17.6621H55.2441L55.2246 15.7676H58.3398C58.8737 15.7676 59.3197 15.6927 59.6777 15.543C60.0358 15.3932 60.306 15.1751 60.4883 14.8887C60.6771 14.6022 60.7715 14.2539 60.7715 13.8438C60.7715 13.388 60.6836 13.0169 60.5078 12.7305C60.3385 12.444 60.0716 12.2357 59.707 12.1055C59.3424 11.9688 58.8802 11.9004 58.3203 11.9004H56.1133V24H53.4277V9.78125H58.3203C59.1276 9.78125 59.847 9.85938 60.4785 10.0156C61.1165 10.1654 61.6569 10.3997 62.0996 10.7188C62.5423 11.0378 62.8776 11.4382 63.1055 11.9199C63.3398 12.4017 63.457 12.9746 63.457 13.6387C63.457 14.2246 63.3203 14.765 63.0469 15.2598C62.7799 15.748 62.3665 16.1452 61.8066 16.4512C61.2533 16.7572 60.5501 16.9329 59.6973 16.9785L58.877 17.6621ZM58.7598 24H54.4531L55.5762 21.8906H58.7598C59.2936 21.8906 59.7331 21.8027 60.0781 21.627C60.4297 21.4512 60.6901 21.2103 60.8594 20.9043C61.0352 20.5918 61.123 20.2337 61.123 19.8301C61.123 19.3874 61.0449 19.0033 60.8887 18.6777C60.7389 18.3522 60.498 18.1016 60.166 17.9258C59.8405 17.75 59.4108 17.6621 58.877 17.6621H56.084L56.1035 15.7676H59.6582L60.2734 16.5C61.0938 16.5065 61.7611 16.6693 62.2754 16.9883C62.7962 17.3073 63.1803 17.7174 63.4277 18.2188C63.6751 18.7201 63.7988 19.2604 63.7988 19.8398C63.7988 20.7513 63.6003 21.5163 63.2031 22.1348C62.8125 22.7533 62.2396 23.2188 61.4844 23.5312C60.7357 23.8438 59.8275 24 58.7598 24ZM75.2246 20.1133C75.2246 20.9987 75.0163 21.7474 74.5996 22.3594C74.1895 22.9648 73.6263 23.4238 72.9102 23.7363C72.2005 24.0423 71.3932 24.1953 70.4883 24.1953C69.5898 24.1953 68.7793 24.0423 68.0566 23.7363C67.3405 23.4238 66.7708 22.9648 66.3477 22.3594C65.931 21.7474 65.7227 20.9987 65.7227 20.1133C65.7227 19.5208 65.8398 18.9837 66.0742 18.502C66.3151 18.0202 66.6471 17.6068 67.0703 17.2617C67.4935 16.9102 67.9948 16.6432 68.5742 16.4609C69.1536 16.2721 69.7852 16.1777 70.4688 16.1777C71.3802 16.1777 72.194 16.3438 72.9102 16.6758C73.6328 17.0013 74.1992 17.4603 74.6094 18.0527C75.0195 18.6387 75.2246 19.3255 75.2246 20.1133ZM72.627 19.957C72.627 19.5013 72.5358 19.1074 72.3535 18.7754C72.1777 18.4368 71.9271 18.1764 71.6016 17.9941C71.276 17.8118 70.8984 17.7207 70.4688 17.7207C70.0326 17.7207 69.6517 17.8118 69.3262 17.9941C69.0072 18.1764 68.7565 18.4368 68.5742 18.7754C68.3984 19.1074 68.3105 19.5013 68.3105 19.957C68.3105 20.4193 68.3984 20.8164 68.5742 21.1484C68.7565 21.474 69.0104 21.7246 69.3359 21.9004C69.6615 22.0762 70.0456 22.1641 70.4883 22.1641C70.931 22.1641 71.3118 22.0762 71.6309 21.9004C71.9499 21.7246 72.194 21.474 72.3633 21.1484C72.5391 20.8164 72.627 20.4193 72.627 19.957ZM74.9121 13.5312C74.9121 14.2474 74.7233 14.8854 74.3457 15.4453C73.9681 15.9987 73.444 16.4316 72.7734 16.7441C72.1094 17.0566 71.3477 17.2129 70.4883 17.2129C69.6289 17.2129 68.8607 17.0566 68.1836 16.7441C67.513 16.4316 66.9857 15.9987 66.6016 15.4453C66.224 14.8854 66.0352 14.2474 66.0352 13.5312C66.0352 12.6849 66.2272 11.9688 66.6113 11.3828C66.9954 10.7904 67.5195 10.3411 68.1836 10.0352C68.8542 9.72917 69.6159 9.57617 70.4688 9.57617C71.3346 9.57617 72.1029 9.72917 72.7734 10.0352C73.444 10.3411 73.9681 10.7904 74.3457 11.3828C74.7233 11.9688 74.9121 12.6849 74.9121 13.5312ZM72.334 13.6387C72.334 13.235 72.2591 12.8835 72.1094 12.584C71.9596 12.278 71.7448 12.0404 71.4648 11.8711C71.1914 11.7018 70.8594 11.6172 70.4688 11.6172C70.0911 11.6172 69.7656 11.6986 69.4922 11.8613C69.2188 12.0241 69.0072 12.2585 68.8574 12.5645C68.7077 12.8639 68.6328 13.222 68.6328 13.6387C68.6328 14.0488 68.7077 14.4069 68.8574 14.7129C69.0072 15.0189 69.2188 15.2598 69.4922 15.4355C69.7721 15.6048 70.1042 15.6895 70.4883 15.6895C70.8724 15.6895 71.2012 15.6048 71.4746 15.4355C71.748 15.2598 71.9596 15.0189 72.1094 14.7129C72.2591 14.4069 72.334 14.0488 72.334 13.6387Z" fill="white"/>
</svg>
