<svg width="444" height="293" viewBox="0 0 444 293" fill="none" xmlns="http://www.w3.org/2000/svg">
<g filter="url(#filter0_d_104_9639)">
<rect x="15" y="11" width="414" height="263" rx="30" fill="white"/>
</g>
<path d="M67.657 75H62.7138L70.2457 53.1818H76.1903L83.7116 75H78.7685L73.3033 58.1676H73.1328L67.657 75ZM67.348 66.424H79.0241V70.0249H67.348V66.424ZM96.7461 68.0327V58.6364H101.284V75H96.9272V72.0277H96.7567C96.3874 72.9865 95.7731 73.7571 94.9137 74.3395C94.0614 74.9219 93.021 75.2131 91.7923 75.2131C90.6985 75.2131 89.7362 74.9645 88.9052 74.4673C88.0742 73.9702 87.4244 73.2635 86.9556 72.3473C86.494 71.4311 86.2596 70.3338 86.2525 69.0554V58.6364H90.7908V68.2457C90.7979 69.2116 91.0572 69.9751 91.5685 70.5362C92.0799 71.0973 92.7653 71.3778 93.6246 71.3778C94.1715 71.3778 94.6829 71.2536 95.1587 71.005C95.6346 70.7493 96.0181 70.3729 96.3093 69.8757C96.6076 69.3786 96.7532 68.7642 96.7461 68.0327ZM113.618 58.6364V62.0455H103.764V58.6364H113.618ZM106.001 54.7159H110.54V69.9716C110.54 70.3906 110.604 70.7173 110.731 70.9517C110.859 71.179 111.037 71.3388 111.264 71.4311C111.498 71.5234 111.768 71.5696 112.074 71.5696C112.287 71.5696 112.5 71.5518 112.713 71.5163C112.926 71.4737 113.089 71.4418 113.203 71.4205L113.917 74.7976C113.689 74.8686 113.37 74.9503 112.958 75.0426C112.546 75.142 112.045 75.2024 111.456 75.2237C110.362 75.2663 109.403 75.1207 108.579 74.7869C107.763 74.4531 107.127 73.9347 106.672 73.2315C106.218 72.5284 105.994 71.6406 106.001 70.5682V54.7159ZM123.792 75.3196C122.138 75.3196 120.706 74.968 119.499 74.2649C118.299 73.5547 117.372 72.5675 116.719 71.3033C116.065 70.032 115.738 68.5582 115.738 66.8821C115.738 65.1918 116.065 63.7145 116.719 62.4503C117.372 61.179 118.299 60.1918 119.499 59.4886C120.706 58.7784 122.138 58.4233 123.792 58.4233C125.447 58.4233 126.875 58.7784 128.075 59.4886C129.282 60.1918 130.213 61.179 130.866 62.4503C131.52 63.7145 131.846 65.1918 131.846 66.8821C131.846 68.5582 131.52 70.032 130.866 71.3033C130.213 72.5675 129.282 73.5547 128.075 74.2649C126.875 74.968 125.447 75.3196 123.792 75.3196ZM123.814 71.804C124.567 71.804 125.195 71.5909 125.699 71.1648C126.204 70.7315 126.584 70.142 126.839 69.3963C127.102 68.6506 127.233 67.8018 127.233 66.8501C127.233 65.8984 127.102 65.0497 126.839 64.304C126.584 63.5582 126.204 62.9687 125.699 62.5355C125.195 62.1023 124.567 61.8857 123.814 61.8857C123.054 61.8857 122.415 62.1023 121.896 62.5355C121.385 62.9687 120.998 63.5582 120.735 64.304C120.479 65.0497 120.351 65.8984 120.351 66.8501C120.351 67.8018 120.479 68.6506 120.735 69.3963C120.998 70.142 121.385 70.7315 121.896 71.1648C122.415 71.5909 123.054 71.804 123.814 71.804ZM143.597 58.6364V62.0455H133.498V58.6364H143.597ZM135.809 75V57.4538C135.809 56.2678 136.04 55.2841 136.502 54.5028C136.971 53.7216 137.61 53.1357 138.42 52.745C139.229 52.3544 140.149 52.1591 141.179 52.1591C141.875 52.1591 142.51 52.2124 143.086 52.3189C143.668 52.4254 144.101 52.5213 144.385 52.6065L143.576 56.0156C143.398 55.9588 143.178 55.9055 142.915 55.8558C142.66 55.8061 142.397 55.7812 142.127 55.7812C141.459 55.7812 140.994 55.9375 140.731 56.25C140.469 56.5554 140.337 56.9851 140.337 57.5391V75H135.809ZM146.37 75V58.6364H150.908V75H146.37ZM148.65 56.527C147.975 56.527 147.396 56.3033 146.913 55.8558C146.437 55.4013 146.199 54.858 146.199 54.2259C146.199 53.6009 146.437 53.0646 146.913 52.6172C147.396 52.1626 147.975 51.9354 148.65 51.9354C149.324 51.9354 149.9 52.1626 150.375 52.6172C150.858 53.0646 151.1 53.6009 151.1 54.2259C151.1 54.858 150.858 55.4013 150.375 55.8558C149.9 56.3033 149.324 56.527 148.65 56.527ZM159.082 53.1818V75H154.544V53.1818H159.082ZM167.256 53.1818V75H162.717V53.1818H167.256Z" fill="black"/>
<path d="M63.0227 111V87.7273H78.7045V91.7841H67.9432V97.3295H77.8977V101.386H67.9432V106.943H78.75V111H63.0227ZM86.571 93.5455L89.7756 99.6477L93.0597 93.5455H98.0256L92.9688 102.273L98.1619 111H93.2188L89.7756 104.966L86.3892 111H81.3892L86.571 102.273L81.571 93.5455H86.571ZM108.162 111.341C106.374 111.341 104.836 110.962 103.548 110.205C102.268 109.439 101.283 108.379 100.594 107.023C99.9119 105.667 99.571 104.106 99.571 102.341C99.571 100.553 99.9157 98.9848 100.605 97.6364C101.302 96.2803 102.291 95.2235 103.571 94.4659C104.851 93.7008 106.374 93.3182 108.139 93.3182C109.662 93.3182 110.995 93.5947 112.139 94.1477C113.283 94.7008 114.188 95.4773 114.855 96.4773C115.522 97.4773 115.889 98.6515 115.957 100H111.389C111.26 99.1288 110.92 98.428 110.366 97.8977C109.821 97.3598 109.105 97.0909 108.219 97.0909C107.469 97.0909 106.813 97.2955 106.253 97.7045C105.7 98.1061 105.268 98.6932 104.957 99.4659C104.647 100.239 104.491 101.174 104.491 102.273C104.491 103.386 104.643 104.333 104.946 105.114C105.257 105.894 105.692 106.489 106.253 106.898C106.813 107.307 107.469 107.511 108.219 107.511C108.772 107.511 109.268 107.398 109.707 107.17C110.154 106.943 110.522 106.614 110.81 106.182C111.105 105.742 111.298 105.216 111.389 104.602H115.957C115.882 105.936 115.518 107.11 114.866 108.125C114.223 109.133 113.332 109.92 112.196 110.489C111.06 111.057 109.715 111.341 108.162 111.341ZM127.011 111.341C125.216 111.341 123.67 110.977 122.375 110.25C121.087 109.515 120.095 108.477 119.398 107.136C118.701 105.788 118.352 104.193 118.352 102.352C118.352 100.557 118.701 98.9811 119.398 97.625C120.095 96.2689 121.076 95.2121 122.341 94.4545C123.614 93.697 125.106 93.3182 126.818 93.3182C127.97 93.3182 129.042 93.5038 130.034 93.875C131.034 94.2386 131.905 94.7879 132.648 95.5227C133.398 96.2576 133.981 97.1818 134.398 98.2955C134.814 99.4015 135.023 100.697 135.023 102.182V103.511H120.284V100.511H130.466C130.466 99.8144 130.314 99.197 130.011 98.6591C129.708 98.1212 129.288 97.7008 128.75 97.3977C128.22 97.0871 127.602 96.9318 126.898 96.9318C126.163 96.9318 125.511 97.1023 124.943 97.4432C124.383 97.7765 123.943 98.2273 123.625 98.7955C123.307 99.3561 123.144 99.9811 123.136 100.67V103.523C123.136 104.386 123.295 105.133 123.614 105.761C123.939 106.39 124.398 106.875 124.989 107.216C125.58 107.557 126.28 107.727 127.091 107.727C127.629 107.727 128.121 107.652 128.568 107.5C129.015 107.348 129.398 107.121 129.716 106.818C130.034 106.515 130.277 106.144 130.443 105.705L134.92 106C134.693 107.076 134.227 108.015 133.523 108.818C132.826 109.614 131.924 110.235 130.818 110.682C129.72 111.121 128.451 111.341 127.011 111.341ZM143.023 87.7273V111H138.182V87.7273H143.023ZM159.284 111.33C158.17 111.33 157.178 111.136 156.307 110.75C155.436 110.356 154.746 109.777 154.239 109.011C153.739 108.239 153.489 107.277 153.489 106.125C153.489 105.155 153.667 104.341 154.023 103.682C154.379 103.023 154.864 102.492 155.477 102.091C156.091 101.689 156.788 101.386 157.568 101.182C158.356 100.977 159.182 100.833 160.045 100.75C161.061 100.644 161.879 100.545 162.5 100.455C163.121 100.356 163.572 100.212 163.852 100.023C164.133 99.8333 164.273 99.553 164.273 99.1818V99.1136C164.273 98.3939 164.045 97.8371 163.591 97.4432C163.144 97.0492 162.508 96.8523 161.682 96.8523C160.811 96.8523 160.117 97.0455 159.602 97.4318C159.087 97.8106 158.746 98.2879 158.58 98.8636L154.102 98.5C154.33 97.4394 154.777 96.5227 155.443 95.75C156.11 94.9697 156.97 94.3712 158.023 93.9545C159.083 93.5303 160.311 93.3182 161.705 93.3182C162.674 93.3182 163.602 93.4318 164.489 93.6591C165.383 93.8864 166.174 94.2386 166.864 94.7159C167.561 95.1932 168.11 95.8068 168.511 96.5568C168.913 97.2992 169.114 98.1894 169.114 99.2273V111H164.523V108.58H164.386C164.106 109.125 163.731 109.606 163.261 110.023C162.792 110.432 162.227 110.754 161.568 110.989C160.909 111.216 160.148 111.33 159.284 111.33ZM160.67 107.989C161.383 107.989 162.011 107.848 162.557 107.568C163.102 107.28 163.53 106.894 163.841 106.409C164.152 105.924 164.307 105.375 164.307 104.761V102.909C164.155 103.008 163.947 103.098 163.682 103.182C163.424 103.258 163.133 103.33 162.807 103.398C162.481 103.458 162.155 103.515 161.83 103.568C161.504 103.614 161.208 103.655 160.943 103.693C160.375 103.777 159.879 103.909 159.455 104.091C159.03 104.273 158.701 104.519 158.466 104.83C158.231 105.133 158.114 105.511 158.114 105.966C158.114 106.625 158.352 107.129 158.83 107.477C159.314 107.818 159.928 107.989 160.67 107.989ZM184.062 103.568V93.5455H188.903V111H184.256V107.83H184.074C183.68 108.852 183.025 109.674 182.108 110.295C181.199 110.917 180.089 111.227 178.778 111.227C177.612 111.227 176.585 110.962 175.699 110.432C174.813 109.902 174.119 109.148 173.619 108.17C173.127 107.193 172.877 106.023 172.869 104.659V93.5455H177.71V103.795C177.718 104.826 177.994 105.64 178.54 106.239C179.085 106.837 179.816 107.136 180.733 107.136C181.316 107.136 181.862 107.004 182.369 106.739C182.877 106.466 183.286 106.064 183.597 105.534C183.915 105.004 184.07 104.348 184.062 103.568ZM202.06 93.5455V97.1818H191.548V93.5455H202.06ZM193.935 89.3636H198.776V105.636C198.776 106.083 198.844 106.432 198.98 106.682C199.116 106.924 199.306 107.095 199.548 107.193C199.798 107.292 200.086 107.341 200.412 107.341C200.639 107.341 200.866 107.322 201.094 107.284C201.321 107.239 201.495 107.205 201.616 107.182L202.378 110.784C202.135 110.86 201.795 110.947 201.355 111.045C200.916 111.152 200.382 111.216 199.753 111.239C198.586 111.284 197.563 111.129 196.685 110.773C195.813 110.417 195.135 109.864 194.651 109.114C194.166 108.364 193.927 107.417 193.935 106.273V89.3636ZM212.912 111.341C211.147 111.341 209.62 110.966 208.332 110.216C207.052 109.458 206.063 108.405 205.366 107.057C204.67 105.701 204.321 104.129 204.321 102.341C204.321 100.538 204.67 98.9621 205.366 97.6136C206.063 96.2576 207.052 95.2045 208.332 94.4545C209.62 93.697 211.147 93.3182 212.912 93.3182C214.677 93.3182 216.2 93.697 217.48 94.4545C218.768 95.2045 219.76 96.2576 220.457 97.6136C221.154 98.9621 221.503 100.538 221.503 102.341C221.503 104.129 221.154 105.701 220.457 107.057C219.76 108.405 218.768 109.458 217.48 110.216C216.2 110.966 214.677 111.341 212.912 111.341ZM212.935 107.591C213.738 107.591 214.408 107.364 214.946 106.909C215.484 106.447 215.889 105.818 216.162 105.023C216.442 104.227 216.582 103.322 216.582 102.307C216.582 101.292 216.442 100.386 216.162 99.5909C215.889 98.7955 215.484 98.1667 214.946 97.7045C214.408 97.2424 213.738 97.0114 212.935 97.0114C212.124 97.0114 211.442 97.2424 210.889 97.7045C210.344 98.1667 209.931 98.7955 209.651 99.5909C209.378 100.386 209.241 101.292 209.241 102.307C209.241 103.322 209.378 104.227 209.651 105.023C209.931 105.818 210.344 106.447 210.889 106.909C211.442 107.364 212.124 107.591 212.935 107.591ZM224.651 111V93.5455H229.264V96.625H229.469C229.832 95.6023 230.438 94.7955 231.287 94.2045C232.135 93.6136 233.151 93.3182 234.332 93.3182C235.529 93.3182 236.548 93.6174 237.389 94.2159C238.23 94.8068 238.791 95.6098 239.071 96.625H239.253C239.609 95.625 240.253 94.8258 241.185 94.2273C242.124 93.6212 243.234 93.3182 244.514 93.3182C246.143 93.3182 247.465 93.8371 248.48 94.875C249.503 95.9053 250.014 97.3674 250.014 99.2614V111H245.185V100.216C245.185 99.2462 244.927 98.5189 244.412 98.0341C243.897 97.5492 243.253 97.3068 242.48 97.3068C241.601 97.3068 240.916 97.5871 240.423 98.1477C239.931 98.7008 239.685 99.4318 239.685 100.341V111H234.991V100.114C234.991 99.2576 234.745 98.5758 234.253 98.0682C233.768 97.5606 233.128 97.3068 232.332 97.3068C231.795 97.3068 231.31 97.4432 230.878 97.7159C230.454 97.9811 230.116 98.3561 229.866 98.8409C229.616 99.3182 229.491 99.8788 229.491 100.523V111H224.651ZM258.815 111.33C257.702 111.33 256.709 111.136 255.838 110.75C254.967 110.356 254.277 109.777 253.77 109.011C253.27 108.239 253.02 107.277 253.02 106.125C253.02 105.155 253.198 104.341 253.554 103.682C253.91 103.023 254.395 102.492 255.009 102.091C255.622 101.689 256.319 101.386 257.099 101.182C257.887 100.977 258.713 100.833 259.577 100.75C260.592 100.644 261.41 100.545 262.031 100.455C262.652 100.356 263.103 100.212 263.384 100.023C263.664 99.8333 263.804 99.553 263.804 99.1818V99.1136C263.804 98.3939 263.577 97.8371 263.122 97.4432C262.675 97.0492 262.039 96.8523 261.213 96.8523C260.342 96.8523 259.649 97.0455 259.134 97.4318C258.618 97.8106 258.277 98.2879 258.111 98.8636L253.634 98.5C253.861 97.4394 254.308 96.5227 254.974 95.75C255.641 94.9697 256.501 94.3712 257.554 93.9545C258.615 93.5303 259.842 93.3182 261.236 93.3182C262.205 93.3182 263.134 93.4318 264.02 93.6591C264.914 93.8864 265.705 94.2386 266.395 94.7159C267.092 95.1932 267.641 95.8068 268.043 96.5568C268.444 97.2992 268.645 98.1894 268.645 99.2273V111H264.054V108.58H263.918C263.637 109.125 263.262 109.606 262.793 110.023C262.323 110.432 261.759 110.754 261.099 110.989C260.44 111.216 259.679 111.33 258.815 111.33ZM260.202 107.989C260.914 107.989 261.543 107.848 262.088 107.568C262.634 107.28 263.062 106.894 263.372 106.409C263.683 105.924 263.838 105.375 263.838 104.761V102.909C263.687 103.008 263.478 103.098 263.213 103.182C262.955 103.258 262.664 103.33 262.338 103.398C262.012 103.458 261.687 103.515 261.361 103.568C261.035 103.614 260.74 103.655 260.474 103.693C259.906 103.777 259.41 103.909 258.986 104.091C258.562 104.273 258.232 104.519 257.997 104.83C257.762 105.133 257.645 105.511 257.645 105.966C257.645 106.625 257.884 107.129 258.361 107.477C258.846 107.818 259.459 107.989 260.202 107.989ZM281.685 93.5455V97.1818H271.173V93.5455H281.685ZM273.56 89.3636H278.401V105.636C278.401 106.083 278.469 106.432 278.605 106.682C278.741 106.924 278.931 107.095 279.173 107.193C279.423 107.292 279.711 107.341 280.037 107.341C280.264 107.341 280.491 107.322 280.719 107.284C280.946 107.239 281.12 107.205 281.241 107.182L282.003 110.784C281.76 110.86 281.42 110.947 280.98 111.045C280.541 111.152 280.007 111.216 279.378 111.239C278.211 111.284 277.188 111.129 276.31 110.773C275.438 110.417 274.76 109.864 274.276 109.114C273.791 108.364 273.552 107.417 273.56 106.273V89.3636ZM284.838 111V93.5455H289.679V111H284.838ZM287.27 91.2955C286.55 91.2955 285.933 91.0568 285.418 90.5795C284.91 90.0947 284.656 89.5152 284.656 88.8409C284.656 88.1742 284.91 87.6023 285.418 87.125C285.933 86.6402 286.55 86.3977 287.27 86.3977C287.99 86.3977 288.603 86.6402 289.111 87.125C289.626 87.6023 289.884 88.1742 289.884 88.8409C289.884 89.5152 289.626 90.0947 289.111 90.5795C288.603 91.0568 287.99 91.2955 287.27 91.2955ZM301.443 111.341C299.678 111.341 298.152 110.966 296.864 110.216C295.583 109.458 294.595 108.405 293.898 107.057C293.201 105.701 292.852 104.129 292.852 102.341C292.852 100.538 293.201 98.9621 293.898 97.6136C294.595 96.2576 295.583 95.2045 296.864 94.4545C298.152 93.697 299.678 93.3182 301.443 93.3182C303.208 93.3182 304.731 93.697 306.011 94.4545C307.299 95.2045 308.292 96.2576 308.989 97.6136C309.686 98.9621 310.034 100.538 310.034 102.341C310.034 104.129 309.686 105.701 308.989 107.057C308.292 108.405 307.299 109.458 306.011 110.216C304.731 110.966 303.208 111.341 301.443 111.341ZM301.466 107.591C302.269 107.591 302.939 107.364 303.477 106.909C304.015 106.447 304.42 105.818 304.693 105.023C304.973 104.227 305.114 103.322 305.114 102.307C305.114 101.292 304.973 100.386 304.693 99.5909C304.42 98.7955 304.015 98.1667 303.477 97.7045C302.939 97.2424 302.269 97.0114 301.466 97.0114C300.655 97.0114 299.973 97.2424 299.42 97.7045C298.875 98.1667 298.462 98.7955 298.182 99.5909C297.909 100.386 297.773 101.292 297.773 102.307C297.773 103.322 297.909 104.227 298.182 105.023C298.462 105.818 298.875 106.447 299.42 106.909C299.973 107.364 300.655 107.591 301.466 107.591ZM318.023 100.909V111H313.182V93.5455H317.795V96.625H318C318.386 95.6098 319.034 94.8068 319.943 94.2159C320.852 93.6174 321.955 93.3182 323.25 93.3182C324.462 93.3182 325.519 93.5833 326.42 94.1136C327.322 94.6439 328.023 95.4015 328.523 96.3864C329.023 97.3636 329.273 98.5303 329.273 99.8864V111H324.432V100.75C324.439 99.6818 324.167 98.8485 323.614 98.25C323.061 97.6439 322.299 97.3409 321.33 97.3409C320.678 97.3409 320.102 97.4811 319.602 97.7614C319.11 98.0417 318.723 98.4508 318.443 98.9886C318.17 99.5189 318.03 100.159 318.023 100.909Z" fill="#096DD9"/>
<circle cx="86" cy="234" r="29.5" stroke="#096DD9"/>
<circle cx="170" cy="234" r="29.5" stroke="#595959"/>
<path d="M157 250.659L170 237.329M170 237.329L183 224M170 237.329L157 224M170 237.329L183 250.659" stroke="#595959" stroke-width="3" stroke-linecap="round" stroke-linejoin="round"/>
<path d="M65.0696 138.455V153H62.4347V138.455H65.0696ZM70.3803 146.608V153H67.8093V142.091H70.2667V143.945H70.3945C70.6455 143.334 71.0456 142.848 71.5948 142.489C72.1488 142.129 72.833 141.949 73.6474 141.949C74.4002 141.949 75.056 142.11 75.6147 142.432C76.1781 142.754 76.6138 143.22 76.9215 143.831C77.234 144.442 77.3879 145.183 77.3832 146.054V153H74.8121V146.452C74.8121 145.723 74.6228 145.152 74.244 144.74C73.8699 144.328 73.3514 144.122 72.6886 144.122C72.2388 144.122 71.8387 144.222 71.4883 144.42C71.1426 144.615 70.8704 144.896 70.6715 145.266C70.4774 145.635 70.3803 146.082 70.3803 146.608ZM88.619 144.974L86.2752 145.23C86.2089 144.993 86.0929 144.771 85.9272 144.562C85.7662 144.354 85.5484 144.186 85.2738 144.058C84.9992 143.93 84.663 143.866 84.2653 143.866C83.7302 143.866 83.2804 143.982 82.9158 144.214C82.556 144.446 82.3784 144.747 82.3832 145.116C82.3784 145.434 82.4944 145.692 82.7312 145.891C82.9727 146.089 83.3704 146.253 83.9244 146.381L85.7852 146.778C86.8174 147.001 87.5844 147.354 88.0863 147.837C88.5929 148.32 88.8486 148.952 88.8533 149.733C88.8486 150.42 88.6474 151.026 88.2496 151.551C87.8567 152.072 87.3098 152.479 86.609 152.773C85.9083 153.066 85.1033 153.213 84.1942 153.213C82.859 153.213 81.7842 152.934 80.9698 152.375C80.1554 151.812 79.6701 151.028 79.5138 150.024L82.021 149.783C82.1346 150.275 82.3761 150.647 82.7454 150.898C83.1147 151.149 83.5953 151.274 84.1871 151.274C84.7979 151.274 85.288 151.149 85.6573 150.898C86.0314 150.647 86.2184 150.337 86.2184 149.967C86.2184 149.655 86.0977 149.397 85.8562 149.193C85.6194 148.99 85.2501 148.833 84.7482 148.724L82.8874 148.334C81.841 148.116 81.0669 147.749 80.565 147.233C80.0631 146.712 79.8145 146.054 79.8192 145.259C79.8145 144.586 79.9968 144.004 80.3661 143.511C80.7402 143.014 81.2586 142.631 81.9215 142.361C82.5891 142.086 83.3585 141.949 84.2298 141.949C85.5082 141.949 86.5143 142.221 87.2482 142.766C87.9869 143.31 88.4438 144.046 88.619 144.974ZM95.8029 153.213C94.7092 153.213 93.7646 152.986 92.9691 152.531C92.1784 152.072 91.57 151.423 91.1438 150.585C90.7177 149.742 90.5046 148.75 90.5046 147.609C90.5046 146.487 90.7177 145.502 91.1438 144.655C91.5747 143.803 92.176 143.14 92.9478 142.666C93.7196 142.188 94.6263 141.949 95.668 141.949C96.3403 141.949 96.9748 142.058 97.5714 142.276C98.1727 142.489 98.703 142.82 99.1623 143.27C99.6263 143.72 99.9909 144.293 100.256 144.989C100.521 145.68 100.654 146.504 100.654 147.46V148.249H91.712V146.516H98.1893C98.1845 146.023 98.078 145.585 97.8697 145.202C97.6613 144.813 97.3701 144.508 96.9961 144.286C96.6268 144.063 96.1959 143.952 95.7035 143.952C95.1779 143.952 94.7163 144.08 94.3185 144.335C93.9208 144.586 93.6107 144.918 93.3881 145.33C93.1703 145.737 93.0591 146.184 93.0543 146.672V148.185C93.0543 148.819 93.1703 149.364 93.4023 149.818C93.6344 150.268 93.9587 150.614 94.3754 150.855C94.792 151.092 95.2797 151.21 95.8384 151.21C96.2125 151.21 96.551 151.158 96.854 151.054C97.1571 150.945 97.4199 150.786 97.6424 150.578C97.8649 150.37 98.033 150.112 98.1467 149.804L100.547 150.074C100.396 150.708 100.107 151.262 99.6808 151.736C99.2594 152.205 98.7196 152.569 98.0614 152.83C97.4033 153.085 96.6504 153.213 95.8029 153.213ZM102.829 153V142.091H105.322V143.909H105.435C105.634 143.279 105.975 142.794 106.458 142.453C106.946 142.107 107.502 141.935 108.127 141.935C108.269 141.935 108.428 141.942 108.603 141.956C108.783 141.965 108.932 141.982 109.05 142.006V144.371C108.942 144.333 108.769 144.3 108.532 144.271C108.3 144.238 108.075 144.222 107.857 144.222C107.388 144.222 106.967 144.323 106.593 144.527C106.224 144.726 105.933 145.003 105.719 145.358C105.506 145.713 105.4 146.123 105.4 146.587V153H102.829ZM116.792 142.091V144.08H110.521V142.091H116.792ZM112.069 139.477H114.64V149.719C114.64 150.064 114.692 150.33 114.796 150.514C114.905 150.694 115.047 150.817 115.222 150.884C115.397 150.95 115.592 150.983 115.805 150.983C115.966 150.983 116.112 150.971 116.245 150.947C116.382 150.924 116.487 150.902 116.558 150.884L116.991 152.893C116.853 152.941 116.657 152.993 116.401 153.05C116.15 153.107 115.843 153.14 115.478 153.149C114.834 153.168 114.254 153.071 113.738 152.858C113.222 152.64 112.812 152.304 112.509 151.849C112.211 151.395 112.064 150.827 112.069 150.145V139.477ZM123.903 153V142.091H126.474V153H123.903ZM125.196 140.543C124.788 140.543 124.438 140.408 124.145 140.138C123.851 139.863 123.704 139.534 123.704 139.151C123.704 138.762 123.851 138.433 124.145 138.163C124.438 137.889 124.788 137.751 125.196 137.751C125.608 137.751 125.958 137.889 126.247 138.163C126.54 138.433 126.687 138.762 126.687 139.151C126.687 139.534 126.54 139.863 126.247 140.138C125.958 140.408 125.608 140.543 125.196 140.543ZM131.689 146.608V153H129.118V142.091H131.575V143.945H131.703C131.954 143.334 132.354 142.848 132.903 142.489C133.457 142.129 134.142 141.949 134.956 141.949C135.709 141.949 136.365 142.11 136.923 142.432C137.487 142.754 137.922 143.22 138.23 143.831C138.543 144.442 138.696 145.183 138.692 146.054V153H136.121V146.452C136.121 145.723 135.931 145.152 135.553 144.74C135.179 144.328 134.66 144.122 133.997 144.122C133.547 144.122 133.147 144.222 132.797 144.42C132.451 144.615 132.179 144.896 131.98 145.266C131.786 145.635 131.689 146.082 131.689 146.608ZM146.831 142.091V144.08H140.382V142.091H146.831ZM141.994 153V141.061C141.994 140.327 142.146 139.716 142.449 139.229C142.757 138.741 143.169 138.376 143.685 138.135C144.201 137.893 144.774 137.773 145.403 137.773C145.848 137.773 146.244 137.808 146.589 137.879C146.935 137.95 147.191 138.014 147.357 138.071L146.845 140.06C146.736 140.027 146.599 139.993 146.433 139.96C146.268 139.922 146.083 139.903 145.879 139.903C145.401 139.903 145.063 140.019 144.864 140.251C144.67 140.479 144.572 140.805 144.572 141.232V153H141.994ZM153.193 153.213C152.127 153.213 151.204 152.979 150.423 152.51C149.642 152.041 149.036 151.385 148.605 150.543C148.179 149.7 147.966 148.715 147.966 147.588C147.966 146.461 148.179 145.474 148.605 144.626C149.036 143.779 149.642 143.121 150.423 142.652C151.204 142.183 152.127 141.949 153.193 141.949C154.258 141.949 155.181 142.183 155.963 142.652C156.744 143.121 157.348 143.779 157.774 144.626C158.205 145.474 158.42 146.461 158.42 147.588C158.42 148.715 158.205 149.7 157.774 150.543C157.348 151.385 156.744 152.041 155.963 152.51C155.181 152.979 154.258 153.213 153.193 153.213ZM153.207 151.153C153.785 151.153 154.268 150.995 154.656 150.678C155.044 150.356 155.333 149.925 155.522 149.385C155.717 148.845 155.814 148.244 155.814 147.581C155.814 146.913 155.717 146.31 155.522 145.77C155.333 145.225 155.044 144.792 154.656 144.47C154.268 144.148 153.785 143.987 153.207 143.987C152.615 143.987 152.123 144.148 151.73 144.47C151.342 144.792 151.05 145.225 150.856 145.77C150.667 146.31 150.572 146.913 150.572 147.581C150.572 148.244 150.667 148.845 150.856 149.385C151.05 149.925 151.342 150.356 151.73 150.678C152.123 150.995 152.615 151.153 153.207 151.153ZM160.602 153V142.091H163.095V143.909H163.209C163.408 143.279 163.749 142.794 164.232 142.453C164.719 142.107 165.276 141.935 165.901 141.935C166.043 141.935 166.201 141.942 166.376 141.956C166.556 141.965 166.705 141.982 166.824 142.006V144.371C166.715 144.333 166.542 144.3 166.305 144.271C166.073 144.238 165.848 144.222 165.631 144.222C165.162 144.222 164.741 144.323 164.366 144.527C163.997 144.726 163.706 145.003 163.493 145.358C163.28 145.713 163.173 146.123 163.173 146.587V153H160.602ZM168.532 153V142.091H170.989V143.945H171.117C171.344 143.32 171.721 142.832 172.246 142.482C172.772 142.126 173.399 141.949 174.129 141.949C174.867 141.949 175.49 142.129 175.996 142.489C176.508 142.844 176.868 143.329 177.076 143.945H177.19C177.431 143.339 177.838 142.856 178.411 142.496C178.989 142.131 179.673 141.949 180.464 141.949C181.468 141.949 182.287 142.266 182.921 142.901C183.556 143.535 183.873 144.461 183.873 145.678V153H181.295V146.075C181.295 145.398 181.115 144.903 180.755 144.591C180.395 144.274 179.955 144.115 179.434 144.115C178.814 144.115 178.328 144.309 177.978 144.697C177.632 145.081 177.46 145.58 177.46 146.196V153H174.938V145.969C174.938 145.405 174.768 144.955 174.427 144.619C174.091 144.283 173.65 144.115 173.106 144.115C172.737 144.115 172.4 144.21 172.097 144.399C171.794 144.584 171.553 144.847 171.373 145.188C171.193 145.524 171.103 145.917 171.103 146.366V153H168.532ZM189.62 153.22C188.929 153.22 188.306 153.097 187.752 152.851C187.203 152.6 186.768 152.231 186.446 151.743C186.128 151.255 185.97 150.654 185.97 149.939C185.97 149.323 186.083 148.814 186.311 148.412C186.538 148.009 186.848 147.688 187.241 147.446C187.634 147.205 188.077 147.022 188.569 146.899C189.066 146.771 189.58 146.679 190.11 146.622C190.75 146.556 191.268 146.497 191.666 146.445C192.064 146.388 192.352 146.303 192.532 146.189C192.717 146.071 192.809 145.888 192.809 145.642V145.599C192.809 145.064 192.651 144.65 192.333 144.357C192.016 144.063 191.559 143.916 190.963 143.916C190.333 143.916 189.833 144.054 189.464 144.328C189.1 144.603 188.853 144.927 188.725 145.301L186.325 144.96C186.514 144.297 186.827 143.743 187.262 143.298C187.698 142.848 188.231 142.512 188.86 142.29C189.49 142.062 190.186 141.949 190.949 141.949C191.474 141.949 191.997 142.01 192.518 142.134C193.039 142.257 193.515 142.46 193.946 142.744C194.377 143.024 194.722 143.405 194.983 143.888C195.248 144.371 195.38 144.974 195.38 145.699V153H192.909V151.501H192.824C192.667 151.804 192.447 152.089 192.163 152.354C191.884 152.614 191.531 152.825 191.105 152.986C190.683 153.142 190.189 153.22 189.62 153.22ZM190.288 151.331C190.804 151.331 191.252 151.229 191.63 151.026C192.009 150.817 192.3 150.543 192.504 150.202C192.712 149.861 192.816 149.489 192.816 149.087V147.801C192.736 147.867 192.599 147.929 192.404 147.986C192.215 148.043 192.002 148.092 191.765 148.135C191.529 148.178 191.294 148.215 191.062 148.249C190.83 148.282 190.629 148.31 190.458 148.334C190.075 148.386 189.732 148.471 189.429 148.589C189.126 148.708 188.886 148.874 188.711 149.087C188.536 149.295 188.449 149.565 188.449 149.896C188.449 150.37 188.621 150.727 188.967 150.969C189.313 151.21 189.753 151.331 190.288 151.331ZM203.413 142.091V144.08H197.142V142.091H203.413ZM198.69 139.477H201.261V149.719C201.261 150.064 201.313 150.33 201.417 150.514C201.526 150.694 201.668 150.817 201.843 150.884C202.019 150.95 202.213 150.983 202.426 150.983C202.587 150.983 202.734 150.971 202.866 150.947C203.003 150.924 203.108 150.902 203.179 150.884L203.612 152.893C203.475 152.941 203.278 152.993 203.022 153.05C202.771 153.107 202.464 153.14 202.099 153.149C201.455 153.168 200.875 153.071 200.359 152.858C199.843 152.64 199.433 152.304 199.13 151.849C198.832 151.395 198.685 150.827 198.69 150.145V139.477ZM205.563 153V142.091H208.134V153H205.563ZM206.856 140.543C206.449 140.543 206.098 140.408 205.805 140.138C205.511 139.863 205.364 139.534 205.364 139.151C205.364 138.762 205.511 138.433 205.805 138.163C206.098 137.889 206.449 137.751 206.856 137.751C207.268 137.751 207.618 137.889 207.907 138.163C208.201 138.433 208.347 138.762 208.347 139.151C208.347 139.534 208.201 139.863 207.907 140.138C207.618 140.408 207.268 140.543 206.856 140.543ZM215.537 153.213C214.471 153.213 213.548 152.979 212.767 152.51C211.985 152.041 211.379 151.385 210.949 150.543C210.522 149.7 210.309 148.715 210.309 147.588C210.309 146.461 210.522 145.474 210.949 144.626C211.379 143.779 211.985 143.121 212.767 142.652C213.548 142.183 214.471 141.949 215.537 141.949C216.602 141.949 217.525 142.183 218.306 142.652C219.088 143.121 219.691 143.779 220.118 144.626C220.548 145.474 220.764 146.461 220.764 147.588C220.764 148.715 220.548 149.7 220.118 150.543C219.691 151.385 219.088 152.041 218.306 152.51C217.525 152.979 216.602 153.213 215.537 153.213ZM215.551 151.153C216.128 151.153 216.611 150.995 217 150.678C217.388 150.356 217.677 149.925 217.866 149.385C218.06 148.845 218.157 148.244 218.157 147.581C218.157 146.913 218.06 146.31 217.866 145.77C217.677 145.225 217.388 144.792 217 144.47C216.611 144.148 216.128 143.987 215.551 143.987C214.959 143.987 214.467 144.148 214.074 144.47C213.685 144.792 213.394 145.225 213.2 145.77C213.011 146.31 212.916 146.913 212.916 147.581C212.916 148.244 213.011 148.845 213.2 149.385C213.394 149.925 213.685 150.356 214.074 150.678C214.467 150.995 214.959 151.153 215.551 151.153ZM225.517 146.608V153H222.946V142.091H225.403V143.945H225.531C225.782 143.334 226.182 142.848 226.732 142.489C227.286 142.129 227.97 141.949 228.784 141.949C229.537 141.949 230.193 142.11 230.751 142.432C231.315 142.754 231.75 143.22 232.058 143.831C232.371 144.442 232.525 145.183 232.52 146.054V153H229.949V146.452C229.949 145.723 229.759 145.152 229.381 144.74C229.007 144.328 228.488 144.122 227.825 144.122C227.375 144.122 226.975 144.222 226.625 144.42C226.279 144.615 226.007 144.896 225.808 145.266C225.614 145.635 225.517 146.082 225.517 146.608ZM240.094 153V142.091H242.587V143.909H242.701C242.9 143.279 243.241 142.794 243.724 142.453C244.211 142.107 244.768 141.935 245.393 141.935C245.535 141.935 245.693 141.942 245.869 141.956C246.049 141.965 246.198 141.982 246.316 142.006V144.371C246.207 144.333 246.034 144.3 245.798 144.271C245.566 144.238 245.341 144.222 245.123 144.222C244.654 144.222 244.233 144.323 243.859 144.527C243.489 144.726 243.198 145.003 242.985 145.358C242.772 145.713 242.665 146.123 242.665 146.587V153H240.094ZM248.024 153V142.091H250.595V153H248.024ZM249.317 140.543C248.91 140.543 248.559 140.408 248.266 140.138C247.972 139.863 247.825 139.534 247.825 139.151C247.825 138.762 247.972 138.433 248.266 138.163C248.559 137.889 248.91 137.751 249.317 137.751C249.729 137.751 250.079 137.889 250.368 138.163C250.661 138.433 250.808 138.762 250.808 139.151C250.808 139.534 250.661 139.863 250.368 140.138C250.079 140.408 249.729 140.543 249.317 140.543ZM257.983 157.318C257.06 157.318 256.267 157.193 255.604 156.942C254.941 156.696 254.408 156.364 254.006 155.947C253.604 155.531 253.324 155.069 253.168 154.562L255.483 154.001C255.587 154.214 255.739 154.425 255.938 154.634C256.137 154.847 256.404 155.022 256.74 155.159C257.081 155.301 257.51 155.372 258.026 155.372C258.755 155.372 259.359 155.195 259.837 154.839C260.315 154.489 260.554 153.911 260.554 153.107V151.04H260.426C260.294 151.305 260.1 151.577 259.844 151.857C259.593 152.136 259.259 152.37 258.843 152.56C258.431 152.749 257.912 152.844 257.287 152.844C256.449 152.844 255.689 152.647 255.007 152.254C254.33 151.857 253.791 151.265 253.388 150.479C252.99 149.688 252.792 148.698 252.792 147.51C252.792 146.312 252.99 145.301 253.388 144.477C253.791 143.649 254.333 143.021 255.015 142.595C255.696 142.164 256.456 141.949 257.294 141.949C257.934 141.949 258.459 142.058 258.871 142.276C259.288 142.489 259.619 142.747 259.865 143.05C260.112 143.348 260.299 143.63 260.426 143.895H260.569V142.091H263.104V153.178C263.104 154.11 262.882 154.882 262.436 155.493C261.991 156.104 261.383 156.561 260.611 156.864C259.839 157.167 258.963 157.318 257.983 157.318ZM258.005 150.827C258.549 150.827 259.013 150.694 259.397 150.429C259.78 150.164 260.071 149.783 260.27 149.286C260.469 148.788 260.569 148.192 260.569 147.496C260.569 146.809 260.469 146.208 260.27 145.692C260.076 145.176 259.787 144.776 259.404 144.491C259.025 144.203 258.559 144.058 258.005 144.058C257.432 144.058 256.953 144.207 256.57 144.506C256.186 144.804 255.898 145.214 255.703 145.734C255.509 146.25 255.412 146.838 255.412 147.496C255.412 148.163 255.509 148.748 255.703 149.25C255.902 149.747 256.194 150.135 256.577 150.415C256.965 150.689 257.441 150.827 258.005 150.827ZM268.31 146.608V153H265.739V138.455H268.253V143.945H268.381C268.637 143.329 269.032 142.844 269.567 142.489C270.107 142.129 270.793 141.949 271.627 141.949C272.384 141.949 273.045 142.107 273.608 142.425C274.172 142.742 274.607 143.206 274.915 143.817C275.228 144.428 275.384 145.173 275.384 146.054V153H272.813V146.452C272.813 145.718 272.623 145.147 272.245 144.74C271.871 144.328 271.345 144.122 270.668 144.122C270.213 144.122 269.806 144.222 269.446 144.42C269.091 144.615 268.812 144.896 268.608 145.266C268.409 145.635 268.31 146.082 268.31 146.608ZM283.452 142.091V144.08H277.181V142.091H283.452ZM278.729 139.477H281.3V149.719C281.3 150.064 281.352 150.33 281.456 150.514C281.565 150.694 281.707 150.817 281.882 150.884C282.058 150.95 282.252 150.983 282.465 150.983C282.626 150.983 282.773 150.971 282.905 150.947C283.042 150.924 283.147 150.902 283.218 150.884L283.651 152.893C283.514 152.941 283.317 152.993 283.061 153.05C282.81 153.107 282.503 153.14 282.138 153.149C281.494 153.168 280.914 153.071 280.398 152.858C279.882 152.64 279.472 152.304 279.169 151.849C278.871 151.395 278.724 150.827 278.729 150.145V139.477ZM295.322 153.213C294.256 153.213 293.333 152.979 292.552 152.51C291.771 152.041 291.165 151.385 290.734 150.543C290.308 149.7 290.094 148.715 290.094 147.588C290.094 146.461 290.308 145.474 290.734 144.626C291.165 143.779 291.771 143.121 292.552 142.652C293.333 142.183 294.256 141.949 295.322 141.949C296.387 141.949 297.31 142.183 298.092 142.652C298.873 143.121 299.477 143.779 299.903 144.626C300.334 145.474 300.549 146.461 300.549 147.588C300.549 148.715 300.334 149.7 299.903 150.543C299.477 151.385 298.873 152.041 298.092 152.51C297.31 152.979 296.387 153.213 295.322 153.213ZM295.336 151.153C295.914 151.153 296.397 150.995 296.785 150.678C297.173 150.356 297.462 149.925 297.651 149.385C297.845 148.845 297.942 148.244 297.942 147.581C297.942 146.913 297.845 146.31 297.651 145.77C297.462 145.225 297.173 144.792 296.785 144.47C296.397 144.148 295.914 143.987 295.336 143.987C294.744 143.987 294.252 144.148 293.859 144.47C293.47 144.792 293.179 145.225 292.985 145.77C292.796 146.31 292.701 146.913 292.701 147.581C292.701 148.244 292.796 148.845 292.985 149.385C293.179 149.925 293.47 150.356 293.859 150.678C294.252 150.995 294.744 151.153 295.336 151.153ZM305.302 146.608V153H302.731V142.091H305.189V143.945H305.316C305.567 143.334 305.967 142.848 306.517 142.489C307.071 142.129 307.755 141.949 308.569 141.949C309.322 141.949 309.978 142.11 310.537 142.432C311.1 142.754 311.536 143.22 311.843 143.831C312.156 144.442 312.31 145.183 312.305 146.054V153H309.734V146.452C309.734 145.723 309.545 145.152 309.166 144.74C308.792 144.328 308.273 144.122 307.61 144.122C307.161 144.122 306.761 144.222 306.41 144.42C306.065 144.615 305.792 144.896 305.593 145.266C305.399 145.635 305.302 146.082 305.302 146.608ZM320.366 142.091V144.08H314.095V142.091H320.366ZM315.643 139.477H318.214V149.719C318.214 150.064 318.266 150.33 318.37 150.514C318.479 150.694 318.621 150.817 318.797 150.884C318.972 150.95 319.166 150.983 319.379 150.983C319.54 150.983 319.687 150.971 319.819 150.947C319.957 150.924 320.061 150.902 320.132 150.884L320.565 152.893C320.428 152.941 320.231 152.993 319.975 153.05C319.725 153.107 319.417 153.14 319.052 153.149C318.408 153.168 317.828 153.071 317.312 152.858C316.796 152.64 316.386 152.304 316.083 151.849C315.785 151.395 315.638 150.827 315.643 150.145V139.477ZM327.158 153.213C326.092 153.213 325.169 152.979 324.388 152.51C323.607 152.041 323 151.385 322.57 150.543C322.143 149.7 321.93 148.715 321.93 147.588C321.93 146.461 322.143 145.474 322.57 144.626C323 143.779 323.607 143.121 324.388 142.652C325.169 142.183 326.092 141.949 327.158 141.949C328.223 141.949 329.146 142.183 329.928 142.652C330.709 143.121 331.313 143.779 331.739 144.626C332.17 145.474 332.385 146.461 332.385 147.588C332.385 148.715 332.17 149.7 331.739 150.543C331.313 151.385 330.709 152.041 329.928 152.51C329.146 152.979 328.223 153.213 327.158 153.213ZM327.172 151.153C327.75 151.153 328.232 150.995 328.621 150.678C329.009 150.356 329.298 149.925 329.487 149.385C329.681 148.845 329.778 148.244 329.778 147.581C329.778 146.913 329.681 146.31 329.487 145.77C329.298 145.225 329.009 144.792 328.621 144.47C328.232 144.148 327.75 143.987 327.172 143.987C326.58 143.987 326.088 144.148 325.695 144.47C325.306 144.792 325.015 145.225 324.821 145.77C324.632 146.31 324.537 146.913 324.537 147.581C324.537 148.244 324.632 148.845 324.821 149.385C325.015 149.925 325.306 150.356 325.695 150.678C326.088 150.995 326.58 151.153 327.172 151.153ZM341.126 157.091C340.776 157.091 340.451 157.063 340.153 157.006C339.859 156.954 339.625 156.892 339.45 156.821L340.047 154.818C340.421 154.927 340.754 154.979 341.048 154.974C341.342 154.97 341.6 154.877 341.822 154.697C342.049 154.522 342.241 154.229 342.397 153.817L342.618 153.227L338.662 142.091H341.389L343.903 150.33H344.017L346.538 142.091H349.272L344.904 154.321C344.701 154.899 344.431 155.393 344.095 155.805C343.759 156.222 343.347 156.539 342.859 156.757C342.376 156.98 341.798 157.091 341.126 157.091ZM355.439 153.213C354.374 153.213 353.45 152.979 352.669 152.51C351.888 152.041 351.282 151.385 350.851 150.543C350.425 149.7 350.212 148.715 350.212 147.588C350.212 146.461 350.425 145.474 350.851 144.626C351.282 143.779 351.888 143.121 352.669 142.652C353.45 142.183 354.374 141.949 355.439 141.949C356.504 141.949 357.428 142.183 358.209 142.652C358.99 143.121 359.594 143.779 360.02 144.626C360.451 145.474 360.666 146.461 360.666 147.588C360.666 148.715 360.451 149.7 360.02 150.543C359.594 151.385 358.99 152.041 358.209 152.51C357.428 152.979 356.504 153.213 355.439 153.213ZM355.453 151.153C356.031 151.153 356.514 150.995 356.902 150.678C357.29 150.356 357.579 149.925 357.768 149.385C357.963 148.845 358.06 148.244 358.06 147.581C358.06 146.913 357.963 146.31 357.768 145.77C357.579 145.225 357.29 144.792 356.902 144.47C356.514 144.148 356.031 143.987 355.453 143.987C354.861 143.987 354.369 144.148 353.976 144.47C353.588 144.792 353.296 145.225 353.102 145.77C352.913 146.31 352.818 146.913 352.818 147.581C352.818 148.244 352.913 148.845 353.102 149.385C353.296 149.925 353.588 150.356 353.976 150.678C354.369 150.995 354.861 151.153 355.453 151.153ZM369.801 148.412V142.091H372.373V153H369.88V151.061H369.766C369.52 151.672 369.115 152.171 368.551 152.56C367.993 152.948 367.304 153.142 366.485 153.142C365.77 153.142 365.138 152.983 364.588 152.666C364.044 152.344 363.618 151.878 363.31 151.267C363.002 150.652 362.848 149.908 362.848 149.037V142.091H365.419V148.639C365.419 149.33 365.609 149.88 365.988 150.287C366.366 150.694 366.864 150.898 367.479 150.898C367.858 150.898 368.225 150.805 368.58 150.621C368.935 150.436 369.226 150.161 369.453 149.797C369.685 149.428 369.801 148.966 369.801 148.412ZM375.016 153V142.091H377.509V143.909H377.623C377.822 143.279 378.163 142.794 378.646 142.453C379.133 142.107 379.69 141.935 380.315 141.935C380.457 141.935 380.615 141.942 380.79 141.956C380.97 141.965 381.12 141.982 381.238 142.006V144.371C381.129 144.333 380.956 144.3 380.719 144.271C380.487 144.238 380.263 144.222 380.045 144.222C379.576 144.222 379.155 144.323 378.781 144.527C378.411 144.726 378.12 145.003 377.907 145.358C377.694 145.713 377.587 146.123 377.587 146.587V153H375.016ZM62.4347 177V162.455H71.8949V164.663H65.0696V168.612H71.4048V170.821H65.0696V174.791H71.9517V177H62.4347ZM76.5717 166.091L78.7734 170.118L81.0107 166.091H83.7308L80.4425 171.545L83.7876 177H81.0817L78.7734 173.072L76.4865 177H73.7592L77.0831 171.545L73.8445 166.091H76.5717ZM90.0678 177.213C88.9788 177.213 88.0437 176.974 87.2624 176.496C86.4859 176.018 85.887 175.357 85.4656 174.514C85.0489 173.667 84.8406 172.691 84.8406 171.588C84.8406 170.48 85.0536 169.502 85.4798 168.655C85.9059 167.803 86.5072 167.14 87.2837 166.666C88.065 166.188 88.9883 165.949 90.0536 165.949C90.939 165.949 91.7227 166.112 92.4045 166.439C93.091 166.761 93.6379 167.218 94.0451 167.81C94.4523 168.397 94.6843 169.083 94.7411 169.869H92.2837C92.1843 169.344 91.9476 168.906 91.5735 168.555C91.2042 168.2 90.7094 168.023 90.0891 168.023C89.5636 168.023 89.1019 168.165 88.7042 168.449C88.3065 168.728 87.9963 169.131 87.7738 169.656C87.556 170.182 87.4471 170.812 87.4471 171.545C87.4471 172.289 87.556 172.928 87.7738 173.463C87.9916 173.993 88.297 174.403 88.69 174.692C89.0877 174.976 89.5541 175.118 90.0891 175.118C90.4679 175.118 90.8065 175.047 91.1048 174.905C91.4078 174.758 91.6611 174.547 91.8647 174.273C92.0683 173.998 92.208 173.664 92.2837 173.271H94.7411C94.6796 174.043 94.4523 174.727 94.0593 175.324C93.6663 175.916 93.1313 176.38 92.4542 176.716C91.7771 177.047 90.9817 177.213 90.0678 177.213ZM101.682 177.213C100.588 177.213 99.6435 176.986 98.848 176.531C98.0573 176.072 97.4489 175.423 97.0227 174.585C96.5966 173.742 96.3835 172.75 96.3835 171.609C96.3835 170.487 96.5966 169.502 97.0227 168.655C97.4536 167.803 98.0549 167.14 98.8267 166.666C99.5985 166.188 100.505 165.949 101.547 165.949C102.219 165.949 102.854 166.058 103.45 166.276C104.052 166.489 104.582 166.82 105.041 167.27C105.505 167.72 105.87 168.293 106.135 168.989C106.4 169.68 106.533 170.504 106.533 171.46V172.249H97.5909V170.516H104.068C104.063 170.023 103.957 169.585 103.749 169.202C103.54 168.813 103.249 168.508 102.875 168.286C102.506 168.063 102.075 167.952 101.582 167.952C101.057 167.952 100.595 168.08 100.197 168.335C99.7997 168.586 99.4896 168.918 99.267 169.33C99.0492 169.737 98.938 170.184 98.9332 170.672V172.185C98.9332 172.819 99.0492 173.364 99.2812 173.818C99.5133 174.268 99.8376 174.614 100.254 174.855C100.671 175.092 101.159 175.21 101.717 175.21C102.091 175.21 102.43 175.158 102.733 175.054C103.036 174.945 103.299 174.786 103.521 174.578C103.744 174.37 103.912 174.112 104.026 173.804L106.426 174.074C106.275 174.708 105.986 175.262 105.56 175.736C105.138 176.205 104.598 176.569 103.94 176.83C103.282 177.085 102.529 177.213 101.682 177.213ZM111.279 162.455V177H108.708V162.455H111.279Z" fill="#595959"/>
<path d="M72 236.791L79.7143 246.652L99 222" stroke="#096DD9" stroke-width="3" stroke-linecap="round" stroke-linejoin="round"/>
<defs>
<filter id="filter0_d_104_9639" x="0" y="0" width="444" height="293" filterUnits="userSpaceOnUse" color-interpolation-filters="sRGB">
<feFlood flood-opacity="0" result="BackgroundImageFix"/>
<feColorMatrix in="SourceAlpha" type="matrix" values="0 0 0 0 0 0 0 0 0 0 0 0 0 0 0 0 0 0 127 0" result="hardAlpha"/>
<feOffset dy="4"/>
<feGaussianBlur stdDeviation="7.5"/>
<feComposite in2="hardAlpha" operator="out"/>
<feColorMatrix type="matrix" values="0 0 0 0 0 0 0 0 0 0 0 0 0 0 0 0 0 0 0.25 0"/>
<feBlend mode="normal" in2="BackgroundImageFix" result="effect1_dropShadow_104_9639"/>
<feBlend mode="normal" in="SourceGraphic" in2="effect1_dropShadow_104_9639" result="shape"/>
</filter>
</defs>
</svg>
