<?xml version="1.0" encoding="UTF-8"?><svg id="a" xmlns="http://www.w3.org/2000/svg" viewBox="0 0 698.56 681.31"><path d="M349.27,0C156.38,0,0,156.35,0,349.27c0,154.32,100.06,285.23,238.84,331.42,17.46,3.23,23.87-7.57,23.87-16.79,0-8.32-.32-35.83-.47-65.02-97.15,21.13-117.67-41.21-117.67-41.21-15.89-40.37-38.77-51.11-38.77-51.11-31.7-21.68,2.39-21.22,2.39-21.22,35.07,2.47,53.52,36,53.52,36,31.14,53.38,81.7,37.95,101.64,29.02,3.14-22.59,12.2-37.98,22.18-46.71-77.57-8.82-159.12-38.77-159.12-172.6,0-38.13,13.65-69.3,36-93.75-3.64-8.82-15.6-44.33,3.38-92.44,0,0,29.34-9.37,96.08,35.8,27.85-7.74,57.72-11.61,87.4-11.76,29.69.15,59.58,4.02,87.49,11.76,66.65-45.2,95.96-35.8,95.96-35.8,19.01,48.11,7.04,83.62,3.43,92.44,22.38,24.45,35.95,55.62,35.95,93.75,0,134.15-81.7,163.69-159.47,172.33,12.52,10.83,23.69,32.1,23.69,64.67,0,46.74-.41,84.35-.41,95.84,0,9.28,6.29,20.2,23.98,16.76,138.72-46.25,238.66-177.11,238.66-331.37C698.53,156.38,542.15,0,349.27,0Z" fill="#90a6b9" fill-rule="evenodd" stroke-width="0"/><path d="M132.28,501.49c-.76,1.75-3.49,2.27-6,1.08-2.53-1.14-3.96-3.52-3.14-5.24.76-1.78,3.49-2.27,6.02-1.08,2.53,1.11,3.99,3.49,3.11,5.24h0Z" fill="#90a6b9" stroke-width="0"/><path d="M146.43,517.26c-1.66,1.54-4.92.81-7.13-1.6-2.3-2.44-2.71-5.7-1.02-7.25,1.72-1.54,4.86-.81,7.16,1.63,2.3,2.42,2.74,5.65.99,7.22h0Z" fill="#90a6b9" stroke-width="0"/><path d="M160.2,537.37c-2.15,1.48-5.65.09-7.8-3-2.15-3.11-2.15-6.84.06-8.32,2.15-1.48,5.62-.15,7.8,2.94,2.12,3.14,2.12,6.87-.06,8.38h0Z" fill="#90a6b9" stroke-width="0"/><path d="M179.06,556.82c-1.92,2.12-6,1.54-8.96-1.34-3.06-2.82-3.9-6.81-1.98-8.94,1.95-2.12,6.05-1.51,9.05,1.34,3.03,2.82,3.93,6.84,1.89,8.94h0Z" fill="#90a6b9" stroke-width="0"/><path d="M205.11,568.08c-.84,2.74-4.77,3.99-8.73,2.82-3.96-1.19-6.55-4.39-5.73-7.16.81-2.76,4.77-4.05,8.76-2.79,3.93,1.16,6.52,4.37,5.7,7.13h0Z" fill="#90a6b9" stroke-width="0"/><path d="M233.69,570.18c.09,2.88-3.26,5.27-7.42,5.33-4.16.09-7.57-2.24-7.6-5.06,0-2.91,3.29-5.27,7.45-5.36,4.16-.09,7.57,2.24,7.57,5.09h0Z" fill="#90a6b9" stroke-width="0"/><path d="M260.29,565.66c.49,2.79-2.39,5.7-6.52,6.46-4.05.76-7.8-.99-8.32-3.78-.49-2.88,2.44-5.76,6.49-6.52,4.1-.73,7.83.96,8.35,3.84h0Z" fill="#90a6b9" stroke-width="0"/></svg>