<?xml version="1.0" encoding="UTF-8"?><svg id="a" xmlns="http://www.w3.org/2000/svg" viewBox="0 0 907.87 907.87">
<path d="M638.25,314.49c-7.97-20.63-24.28-36.93-44.92-44.87-14.05-5.2-28.9-7.96-43.88-8.13-24.92-1.13-32.39-1.42-95.52-1.42s-70.6.28-95.52,1.42c-15,.17-29.86,2.92-43.93,8.13-20.63,7.97-36.93,24.28-44.87,44.92-5.2,14.05-7.96,28.9-8.13,43.88-1.13,24.92-1.42,32.39-1.42,95.52s.28,70.6,1.42,95.52c.17,15,2.92,29.86,8.13,43.93,7.97,20.63,24.28,36.93,44.92,44.87,14.05,5.2,28.9,7.96,43.88,8.13,24.92,1.13,32.39,1.37,95.52,1.37s70.6-.24,95.52-1.42c15-.16,29.86-2.89,43.93-8.09,20.63-7.97,36.93-24.28,44.87-44.92,5.2-14.05,7.96-28.9,8.13-43.88,1.13-24.92,1.37-32.39,1.37-95.52s-.24-70.6-1.42-95.52c-.16-15-2.89-29.86-8.09-43.93ZM453.94,575.36c-67.06,0-121.43-54.37-121.43-121.43s54.37-121.43,121.43-121.43,121.43,54.37,121.43,121.43h0c0,67.06-54.37,121.43-121.43,121.43ZM580.14,356.1c-15.67,0-28.37-12.7-28.37-28.37s12.7-28.37,28.37-28.37c15.67,0,28.37,12.7,28.37,28.37s-12.7,28.37-28.37,28.37h0ZM532.76,453.94c0,43.53-35.29,78.82-78.82,78.82s-78.82-35.29-78.82-78.82,35.29-78.82,78.82-78.82,78.82,35.29,78.82,78.82h0ZM453.94,0C203.23,0,0,203.23,0,453.94s203.23,453.94,453.94,453.94,453.94-203.23,453.94-453.94S704.64,0,453.94,0h0ZM688.94,551.39c-.4,19.62-4.13,39.03-11.02,57.4-12.28,31.75-37.38,56.85-69.13,69.13-18.36,6.89-37.75,10.61-57.36,11.02-25.25,1.13-33.29,1.42-97.5,1.42s-72.25-.28-97.5-1.42c-19.6-.41-39-4.13-57.36-11.02-31.75-12.28-56.85-37.38-69.13-69.13-6.89-18.36-10.61-37.75-11.02-57.36-1.13-25.25-1.42-33.29-1.42-97.5s.28-72.25,1.42-97.5c.39-19.6,4.1-38.99,10.97-57.36,12.28-31.78,37.4-56.9,69.18-69.18,18.36-6.87,37.76-10.58,57.36-10.97,25.25-1.13,33.29-1.42,97.5-1.42s72.25.28,97.5,1.42c19.6.39,38.99,4.1,57.36,10.97,31.76,12.29,56.86,37.41,69.13,69.18,6.89,18.36,10.61,37.75,11.02,57.36,1.13,25.25,1.42,33.29,1.42,97.5s-.28,72.25-1.42,97.5v-.05Z" fill="#90a6b9" stroke-width="0"/></svg>