<?xml version="1.0" encoding="UTF-8"?><svg id="a" xmlns="http://www.w3.org/2000/svg" viewBox="0 0 1829.09 419.9"><path d="M239.76,390.56c-2.11,2.1-5.63,4.78-10.57,8.04-4.95,3.26-10.83,6.52-17.67,9.78-6.83,3.26-15.93,5.99-27.29,8.2-11.36,2.21-23.55,3.31-36.6,3.31-27.55,0-51.1-4.57-70.67-13.72-19.56-9.15-34.86-22.5-45.9-40.07-11.03-17.56-18.98-37.43-23.81-59.62-4.84-22.19-7.26-47.9-7.26-77.13,0-31.12,2.42-58,7.26-80.6,4.83-22.61,12.87-42.48,24.13-59.63,11.25-17.14,26.76-30.02,46.54-38.65,19.77-8.62,43.85-12.93,72.25-12.93,13.04,0,25.29,1.16,36.75,3.47,11.46,2.31,20.5,4.94,27.13,7.88,6.63,2.95,12.62,6.31,17.98,10.1,5.37,3.79,8.73,6.42,10.1,7.88,1.36,1.48,2.36,2.63,2.99,3.47l-4.73,72.56h-47.96l-16.4-37.54c-3.79-1.05-6.95-1.58-9.47-1.58-14.09,0-24.92,3.21-32.49,9.62-7.57,6.42-13.35,18.93-17.35,37.54-4,18.61-5.99,45.38-5.99,80.29,0,20.82,1.31,39.01,3.94,54.58,2.63,15.57,5.84,27.5,9.62,35.81,3.79,8.31,8.3,14.99,13.56,20.03,5.25,5.05,9.99,8.26,14.2,9.62,4.21,1.37,8.72,2.05,13.56,2.05,10.73,0,21.98-1.31,33.76-3.94,11.78-2.63,21.45-6.68,29.02-12.15l14.2,49.85-2.84,3.47Z" fill="#fff" stroke-width="0"/><path d="M270.04,413.28V56.47l-18.92-11.36V15.77L352.38,0h20.51v185.82l3.79-4.73c2.52-3.36,6.25-7.36,11.2-11.99,4.94-4.62,10.46-9.2,16.56-13.72,6.1-4.52,13.41-8.41,21.92-11.67,8.52-3.26,16.88-4.89,25.08-4.89,28.81,0,49.16,7.89,61.04,23.66,11.89,15.77,17.83,42.17,17.83,79.19v5.68c-.21,2.52-.32,4.52-.32,5.99v159.95h-104.11v-169.1c.63-19.77-7.78-29.65-25.24-29.65-1.69,0-3.32.11-4.89.32-1.58.21-3.21.74-4.89,1.58s-3,1.47-3.95,1.89c-.94.42-2.31,1.26-4.1,2.52-1.78,1.26-2.94,2.11-3.47,2.53-.53.43-1.78,1.48-3.79,3.15-1.99,1.69-3.11,2.63-3.31,2.84v183.92h-102.22Z" fill="#fff" stroke-width="0"/><path d="M624.79,409.17c-17.35-7.15-31.02-17.14-41.01-29.97-10-12.83-17.3-27.29-21.93-43.38-4.63-16.09-6.94-34.02-6.94-53.79,0-47.11,11.99-82.76,35.96-106.95,23.98-24.18,57.52-36.28,100.64-36.28s71.09,9.73,88.96,29.18c17.88,19.45,26.82,50.74,26.82,93.85v35.02h-144.18v6c0,12.41,1.31,22.61,3.94,30.6,2.63,7.99,6.47,13.88,11.52,17.67,5.04,3.79,10.2,6.31,15.45,7.57,5.26,1.26,11.67,1.89,19.25,1.89s15.3-.94,23.82-2.84c8.52-1.89,17.14-4.84,25.87-8.83,8.72-3.99,16.04-8.72,21.92-14.2l18.61,31.86c-7.78,12.62-19.2,23.19-34.23,31.7-15.04,8.52-29.5,14.25-43.38,17.2-13.89,2.94-27.14,4.41-39.75,4.41-23.56,0-44.02-3.58-61.37-10.73ZM707.29,193.39c-2.74-11.15-7.78-16.72-15.14-16.72-6.31,0-11.46,1.1-15.46,3.31s-6.94,5.68-8.83,10.41c-1.9,4.73-3.11,9.57-3.63,14.51-.53,4.95-.79,11.2-.79,18.77v26.5h47.96c0-26.71-1.37-45.64-4.1-56.79Z" fill="#fff" stroke-width="0"/><path d="M1049.57,390.56c-1.89,2.1-5.21,4.78-9.94,8.04-4.73,3.26-10.41,6.52-17.03,9.78-6.62,3.26-15.46,5.99-26.5,8.2-11.03,2.21-22.87,3.31-35.49,3.31-42.7,0-75.35-12.51-97.95-37.54-22.61-25.02-33.91-58.15-33.91-99.37,0-22.29,3.47-42.59,10.41-60.89,6.94-18.3,16.45-33.49,28.55-45.59,12.1-12.09,26.29-21.45,42.59-28.08,16.3-6.63,33.91-9.94,52.84-9.94,36.6,0,64.99,8.73,85.18,26.19l6.63,6.62-4.73,74.14-44.8.31-17.98-48.27c-1.69-.42-4-.63-6.94-.63-19.14,0-32.33,6.58-39.59,19.72-7.26,13.15-10.89,35.92-10.89,68.3,0,14.09,1.16,26.13,3.47,36.12,2.32,9.99,4.95,17.46,7.89,22.4,2.94,4.95,6.89,8.78,11.83,11.52,4.95,2.73,8.99,4.31,12.15,4.73,3.15.42,7.04.63,11.67.63,10.52,0,21.3-1.26,32.34-3.79,11.04-2.53,20.13-6.63,27.29-12.3l15.77,42.9-2.84,3.47Z" fill="#fff" stroke-width="0"/><path d="M1082.05,56.47l-18.92-11.36V15.77l101.26-15.77h20.51v413.28h-102.85V56.47ZM1191.21,284.25l51.73-139.12h118.3l-82.65,123.98,84.55,144.18h-123.04l-48.9-129.03Z" fill="#fff" stroke-width="0"/><path d="M1429.54,409.17c-17.35-7.15-31.02-17.14-41.01-29.97-10-12.83-17.3-27.29-21.93-43.38-4.63-16.09-6.94-34.02-6.94-53.79,0-47.11,11.99-82.76,35.96-106.95,23.98-24.18,57.52-36.28,100.64-36.28s71.09,9.73,88.96,29.18c17.88,19.45,26.82,50.74,26.82,93.85v35.02h-144.18v6c0,12.41,1.31,22.61,3.94,30.6,2.63,7.99,6.47,13.88,11.52,17.67,5.04,3.79,10.2,6.31,15.45,7.57,5.26,1.26,11.67,1.89,19.25,1.89s15.3-.94,23.82-2.84,17.14-4.84,25.87-8.83c8.72-3.99,16.04-8.72,21.92-14.2l18.61,31.86c-7.78,12.62-19.2,23.19-34.23,31.7-15.04,8.52-29.5,14.25-43.38,17.2-13.89,2.94-27.14,4.41-39.75,4.41-23.56,0-44.02-3.58-61.37-10.73ZM1512.04,193.39c-2.74-11.15-7.78-16.72-15.14-16.72-6.31,0-11.46,1.1-15.46,3.31s-6.94,5.68-8.83,10.41c-1.9,4.73-3.11,9.57-3.63,14.51-.53,4.95-.79,11.2-.79,18.77v26.5h47.96c0-26.71-1.37-45.64-4.1-56.79Z" fill="#fff" stroke-width="0"/><path d="M1646.11,413.28v-204.11l-18.93-11.67v-35.65l67.83-16.72h25.55l9.15,75.08c8.62-51.53,36.28-77.29,82.97-77.29,5.25,0,10.73.94,16.4,2.84l-10.73,112.31c-4.42-3.99-14.09-6-29.02-6-21.45,0-35.23,5.68-41.32,17.03v144.18h-101.9Z" fill="#fff" stroke-width="0"/></svg>