<?xml version="1.0" encoding="UTF-8"?><svg id="a" xmlns="http://www.w3.org/2000/svg" viewBox="0 0 899.01 899.01"><path d="M899.01,449.5c0,248.25-201.25,449.5-449.5,449.5S0,697.76,0,449.5,201.25,0,449.5,0s449.5,201.25,449.5,449.5ZM461.58,451.67c-.24,42.68.72,85.13-1.67,127.81-.24,9.3-5.25,17.41-9.78,25.28-13.83,22.65-39.34,38.15-66.05,38.39-40.06,3.58-77.73-29.33-83.46-68.43-.24-12.88-1.67-26.23,3.34-38.39,5.96-16.93,17.41-31.95,32.43-41.73,20.74-14.31,48.4-16.45,72.01-8.82,0-35.29,1.43-70.58.95-105.87-51.74-9.78-107.06,6.68-146.64,41.01-34.81,29.57-57.23,72.96-61.52,118.27-.48,11.68-.24,23.61.24,35.53,5.01,55.8,38.87,107.78,87.03,136.15,29.09,17.17,63.19,26.47,97.29,24.56,55.56-.95,109.69-30.76,140.92-76.54,19.31-27.42,30.28-60.57,32.19-93.95.72-69.39.24-139.01.48-208.64,12.4,8.11,25.04,15.98,38.63,22.18,31.24,14.78,65.81,21.94,100.15,23.13v-96.09c-36.72-4.05-74.4-16.21-101.1-42.68-26.71-25.75-39.82-62.95-41.73-99.43-31,.24-62,0-93.23.48-.72,95.86-.24,191.71-.48,287.81Z" fill="#90a6b9" stroke-width="0"/></svg>